# xmcd
#
# Track frame offsets: 
#        150
#        17798
#        33098
#        56598
#        78430
#        97431
#        116554
#        133861
#        149568
#        166852
#
# Disc length: 2420 seconds
#
# Revision: 2
# Processed by: cddbd v1.5.2PL0 Copyright (c) Steve Scherf et al.
# Submitted via: ExactAudioCopy v0.99pb5
#
DISCID=8a09720a
DTITLE=Kerri Powers - Faith in the Shadows
DYEAR=2009
DGENRE=Folk-Rock
TTITLE0=Do You Hear Footsteps?
TTITLE1=Trying to Make My Way to You
TTITLE2=Nobody Minds My Drinking
TTITLE3=Magdelene
TTITLE4=Shadow of Someone
TTITLE5=Low Down Low
TTITLE6=Fireworks and Cheap Repairs
TTITLE7=Diamond Day
TTITLE8=Sweet Crusade
TTITLE9=Tallulah Send a Car for Me
EXTD=
EXTT0=
EXTT1=
EXTT2=
EXTT3=
EXTT4=
EXTT5=
EXTT6=
EXTT7=
EXTT8=
EXTT9=
PLAYORDER=
